<!-- Shape: image_on -->
<svg xmlns:xlink="http://www.w3.org/1999/xlink" fill="none" width="10.424" xmlns="http://www.w3.org/2000/svg" style="-webkit-print-color-adjust:exact" id="screenshot-892c6fcd-85d2-8099-8003-c05aa0dfe5f5" version="1.1" viewBox="730.788 235.785 10.424 10.43" height="10.43">
  <g id="shape-892c6fcd-85d2-8099-8003-c05aa0dfe5f5" style="fill:#000000" rx="0" ry="0">
    <g id="shape-892c6fcd-85d2-8099-8003-c05aa0e05523" style="fill:#000000" rx="0" ry="0">
      <g id="shape-892c6fcd-85d2-8099-8003-c05aa0e05524" style="fill:#000000" rx="0" ry="0">
        <g id="shape-892c6fcd-85d2-8099-8003-c05aa0e171e8">
          <g class="fills" id="fills-892c6fcd-85d2-8099-8003-c05aa0e171e8">
            <path rx="0" ry="0" style="fill:#1c5854;fill-opacity:0.6" d="M739.754,235.785L732.246,235.785C731.859,235.785,731.489,235.939,731.215,236.212C730.942,236.486,730.788,236.857,730.788,237.243L730.788,244.757C730.790,245.561,731.442,246.213,732.246,246.215L739.754,246.215C740.558,246.213,741.210,245.561,741.212,244.757L741.212,237.243C741.212,236.438,740.559,235.785,739.754,235.785ZZM731.371,237.243C731.371,236.760,731.763,236.368,732.246,236.368L739.754,236.368C740.237,236.368,740.629,236.760,740.629,237.243L740.629,242.295L738.365,240.032C738.023,239.693,737.472,239.693,737.129,240.032L734.469,242.697C734.353,242.808,734.170,242.808,734.055,242.697L733.728,242.371C733.383,242.037,732.836,242.037,732.491,242.371L731.371,243.491ZM740.629,244.757C740.629,245.240,740.237,245.632,739.754,245.632L732.246,245.632C731.763,245.632,731.371,245.240,731.371,244.757L731.371,244.319L732.908,242.785C732.963,242.732,733.036,242.703,733.112,242.703C733.190,242.703,733.265,242.732,733.322,242.785L733.643,243.112C733.986,243.450,734.537,243.450,734.880,243.112L737.546,240.446C737.601,240.391,737.675,240.360,737.753,240.360C737.831,240.360,737.905,240.391,737.960,240.446L740.632,243.117Z">
            </path>
          </g>
        </g>
        <g id="shape-892c6fcd-85d2-8099-8003-c05aa0e1c092">
          <g class="fills" id="fills-892c6fcd-85d2-8099-8003-c05aa0e1c092">
            <path rx="0" ry="0" style="fill:#1c5854;fill-opacity:0.6" d="M733.703,240.163C732.897,240.163,732.245,239.510,732.245,238.705C732.245,237.899,732.897,237.246,733.703,237.246C734.508,237.246,735.161,237.899,735.161,238.705C735.161,239.510,734.508,240.163,733.703,240.163ZZM733.703,237.830C733.220,237.830,732.828,238.221,732.828,238.705C732.828,239.188,733.220,239.580,733.703,239.580C734.186,239.580,734.578,239.188,734.578,238.705C734.578,238.221,734.186,237.830,733.703,237.830ZZ">
            </path>
          </g>
        </g>
      </g>
    </g>
  </g>
</svg>